<svg width="38" height="20" viewBox="0 0 38 20" fill="none" xmlns="http://www.w3.org/2000/svg">
<path d="M0 2C0 0.895431 0.895431 0 2 0H36C37.1046 0 38 0.895431 38 2C38 3.10457 37.1046 4 36 4H2C0.89543 4 0 3.10457 0 2Z" fill="#F9F9FA"/>
<path d="M0 10C0 8.89543 0.895431 8 2 8H36C37.1046 8 38 8.89543 38 10C38 11.1046 37.1046 12 36 12H2C0.89543 12 0 11.1046 0 10Z" fill="#F9F9FA"/>
<path d="M0 18C0 16.8954 0.895431 16 2 16H36C37.1046 16 38 16.8954 38 18C38 19.1046 37.1046 20 36 20H2C0.89543 20 0 19.1046 0 18Z" fill="#F9F9FA"/>
</svg>