<svg width="723" height="105" viewBox="0 0 723 105" fill="none" xmlns="http://www.w3.org/2000/svg">
<path d="M27.464 103H46.408V24.024H73.16V8.28H0.712V24.024H27.464V103ZM87.112 103H105.928V53.72C111.176 48.6 114.888 45.784 120.776 45.784C127.688 45.784 130.888 49.496 130.888 60.76V103H149.704V58.328C149.704 40.408 142.92 29.656 127.56 29.656C117.832 29.656 110.664 34.776 105.032 40.152L105.928 26.712V0.983994H87.112V103ZM200.219 104.792C209.051 104.792 218.011 101.848 225.051 96.984L218.779 85.336C213.531 88.536 208.411 90.328 202.651 90.328C192.027 90.328 184.347 84.312 182.683 72.536H226.971C227.355 70.744 227.739 67.416 227.739 63.832C227.739 43.992 217.627 29.656 197.787 29.656C180.891 29.656 164.507 43.992 164.507 67.288C164.507 90.968 180.123 104.792 200.219 104.792ZM182.427 59.992C183.963 49.496 190.619 44.12 198.171 44.12C207.387 44.12 211.739 50.264 211.739 59.992H182.427ZM273.898 103H292.842V64.6H326.506V48.856H292.842V24.024H332.266V8.28H273.898V103ZM342.501 103H405.989V87.128H385.253C380.773 87.128 374.501 87.768 369.765 88.28C386.661 70.616 401.637 53.848 401.637 37.848C401.637 20.312 389.605 9.048 371.813 9.048C358.885 9.048 350.309 14.04 341.605 23.384L351.973 33.624C356.837 28.504 362.341 23.768 369.381 23.768C378.469 23.768 383.461 29.4 383.461 38.744C383.461 52.568 367.205 68.568 342.501 92.248V103ZM424.273 103H483.793V87.128H443.217V61.912H476.369V45.912H443.217V24.024H482.385V8.28H424.273V103ZM563.383 103H580.919V10.712H558.263L523.063 67.16V80.088H592.183V65.624H541.367L555.959 42.456C558.647 37.208 561.207 32.472 563.639 27.48H564.151C563.895 32.984 563.383 41.816 563.383 47.32V103ZM632.099 104.792C638.499 104.792 643.491 103.384 647.331 102.104L644.259 88.408C642.211 89.176 639.523 90.072 637.091 90.072C630.819 90.072 627.363 86.232 627.363 78.04V46.168H645.155V31.448H627.363V11.992H611.747L609.699 31.448L598.563 32.216V46.168H608.547V78.04C608.547 94.04 615.075 104.792 632.099 104.792ZM659.862 103H678.678V53.72C683.926 48.6 687.638 45.784 693.526 45.784C700.438 45.784 703.638 49.496 703.638 60.76V103H722.454V58.328C722.454 40.408 715.67 29.656 700.31 29.656C690.582 29.656 683.414 34.776 677.782 40.152L678.678 26.712V0.983994H659.862V103Z" fill="#F9F9FA"/>
<path d="M27.464 103H23.464V107H27.464V103ZM46.408 103V107H50.408V103H46.408ZM46.408 24.024V20.024H42.408V24.024H46.408ZM73.16 24.024V28.024H77.16V24.024H73.16ZM73.16 8.28H77.16V4.28H73.16V8.28ZM0.712 8.28V4.28H-3.288V8.28H0.712ZM0.712 24.024H-3.288V28.024H0.712V24.024ZM27.464 24.024H31.464V20.024H27.464V24.024ZM27.464 107H46.408V99H27.464V107ZM50.408 103V24.024H42.408V103H50.408ZM46.408 28.024H73.16V20.024H46.408V28.024ZM77.16 24.024V8.28H69.16V24.024H77.16ZM73.16 4.28H0.712V12.28H73.16V4.28ZM-3.288 8.28V24.024H4.712V8.28H-3.288ZM0.712 28.024H27.464V20.024H0.712V28.024ZM23.464 24.024V103H31.464V24.024H23.464ZM87.112 103H83.112V107H87.112V103ZM105.928 103V107H109.928V103H105.928ZM105.928 53.72L103.135 50.8569L101.928 52.0341V53.72H105.928ZM130.888 103H126.888V107H130.888V103ZM149.704 103V107H153.704V103H149.704ZM105.032 40.152L101.041 39.8859L100.357 50.1443L107.794 43.0454L105.032 40.152ZM105.928 26.712L109.919 26.9781L109.928 26.8452V26.712H105.928ZM105.928 0.983994H109.928V-3.01601H105.928V0.983994ZM87.112 0.983994V-3.01601H83.112V0.983994H87.112ZM87.112 107H105.928V99H87.112V107ZM109.928 103V53.72H101.928V103H109.928ZM108.721 56.5831C113.888 51.542 116.591 49.784 120.776 49.784V41.784C113.185 41.784 108.464 45.658 103.135 50.8569L108.721 56.5831ZM120.776 49.784C123.491 49.784 124.524 50.4677 125.166 51.3687C126.071 52.6389 126.888 55.3035 126.888 60.76H134.888C134.888 54.9525 134.105 50.1291 131.682 46.7273C128.996 42.9563 124.973 41.784 120.776 41.784V49.784ZM126.888 60.76V103H134.888V60.76H126.888ZM130.888 107H149.704V99H130.888V107ZM153.704 103V58.328H145.704V103H153.704ZM153.704 58.328C153.704 48.9727 151.952 40.8136 147.617 34.9056C143.121 28.778 136.283 25.656 127.56 25.656V33.656C134.197 33.656 138.431 35.91 141.167 39.6384C144.064 43.5864 145.704 49.7633 145.704 58.328H153.704ZM127.56 25.656C116.288 25.656 108.164 31.6329 102.27 37.2586L107.794 43.0454C113.164 37.9191 119.376 33.656 127.56 33.656V25.656ZM109.023 40.4181L109.919 26.9781L101.937 26.4459L101.041 39.8859L109.023 40.4181ZM109.928 26.712V0.983994H101.928V26.712H109.928ZM105.928 -3.01601H87.112V4.98399H105.928V-3.01601ZM83.112 0.983994V103H91.112V0.983994H83.112ZM225.051 96.984L227.325 100.275L230.27 98.2398L228.573 95.0876L225.051 96.984ZM218.779 85.336L222.301 83.4396L220.3 79.7236L216.697 81.9208L218.779 85.336ZM182.683 72.536V68.536H178.078L178.722 73.0957L182.683 72.536ZM226.971 72.536V76.536H230.205L230.882 73.3741L226.971 72.536ZM182.427 59.992L178.469 59.4128L177.799 63.992H182.427V59.992ZM211.739 59.992V63.992H215.739V59.992H211.739ZM200.219 108.792C209.895 108.792 219.643 105.582 227.325 100.275L222.777 93.6931C216.379 98.1138 208.207 100.792 200.219 100.792V108.792ZM228.573 95.0876L222.301 83.4396L215.257 87.2324L221.529 98.8804L228.573 95.0876ZM216.697 81.9208C211.899 84.8464 207.493 86.328 202.651 86.328V94.328C209.329 94.328 215.163 92.2256 220.861 88.7512L216.697 81.9208ZM202.651 86.328C198.1 86.328 194.511 85.0502 191.917 82.8169C189.332 80.5907 187.367 77.0977 186.644 71.9763L178.722 73.0957C179.663 79.7503 182.37 85.1533 186.697 88.8791C191.015 92.5978 196.578 94.328 202.651 94.328V86.328ZM182.683 76.536H226.971V68.536H182.683V76.536ZM230.882 73.3741C231.336 71.2562 231.739 67.641 231.739 63.832H223.739C223.739 67.191 223.374 70.2318 223.06 71.6979L230.882 73.3741ZM231.739 63.832C231.739 53.2837 229.054 43.74 223.287 36.7569C217.433 29.668 208.757 25.656 197.787 25.656V33.656C206.657 33.656 212.957 36.812 217.119 41.8511C221.368 46.996 223.739 54.5403 223.739 63.832H231.739ZM197.787 25.656C178.513 25.656 160.507 41.9557 160.507 67.288H168.507C168.507 46.0283 183.269 33.656 197.787 33.656V25.656ZM160.507 67.288C160.507 80.0356 164.731 90.4804 171.999 97.7484C179.253 105.003 189.242 108.792 200.219 108.792V100.792C191.1 100.792 183.233 97.6689 177.655 92.0916C172.091 86.5276 168.507 78.2204 168.507 67.288H160.507ZM186.385 60.5712C187.047 56.0486 188.756 52.9567 190.796 51.0221C192.823 49.0988 195.378 48.12 198.171 48.12V40.12C193.412 40.12 188.863 41.8292 185.29 45.2179C181.73 48.5952 179.343 53.4394 178.469 59.4128L186.385 60.5712ZM198.171 48.12C201.822 48.12 203.971 49.2899 205.309 50.9331C206.757 52.7128 207.739 55.6471 207.739 59.992H215.739C215.739 54.6089 214.545 49.6071 211.513 45.8829C208.371 42.0221 203.736 40.12 198.171 40.12V48.12ZM211.739 55.992H182.427V63.992H211.739V55.992ZM273.898 103H269.898V107H273.898V103ZM292.842 103V107H296.842V103H292.842ZM292.842 64.6V60.6H288.842V64.6H292.842ZM326.506 64.6V68.6H330.506V64.6H326.506ZM326.506 48.856H330.506V44.856H326.506V48.856ZM292.842 48.856H288.842V52.856H292.842V48.856ZM292.842 24.024V20.024H288.842V24.024H292.842ZM332.266 24.024V28.024H336.266V24.024H332.266ZM332.266 8.28H336.266V4.28H332.266V8.28ZM273.898 8.28V4.28H269.898V8.28H273.898ZM273.898 107H292.842V99H273.898V107ZM296.842 103V64.6H288.842V103H296.842ZM292.842 68.6H326.506V60.6H292.842V68.6ZM330.506 64.6V48.856H322.506V64.6H330.506ZM326.506 44.856H292.842V52.856H326.506V44.856ZM296.842 48.856V24.024H288.842V48.856H296.842ZM292.842 28.024H332.266V20.024H292.842V28.024ZM336.266 24.024V8.28H328.266V24.024H336.266ZM332.266 4.28H273.898V12.28H332.266V4.28ZM269.898 8.28V103H277.898V8.28H269.898ZM342.501 103H338.501V107H342.501V103ZM405.989 103V107H409.989V103H405.989ZM405.989 87.128H409.989V83.128H405.989V87.128ZM369.765 88.28L366.874 85.5151L359.299 93.4348L370.195 92.2568L369.765 88.28ZM341.605 23.384L338.678 20.6576L336.03 23.5001L338.794 26.2299L341.605 23.384ZM351.973 33.624L349.162 36.4699L352.064 39.3359L354.873 36.379L351.973 33.624ZM342.501 92.248L339.733 89.3604L338.501 90.5413V92.248H342.501ZM342.501 107H405.989V99H342.501V107ZM409.989 103V87.128H401.989V103H409.989ZM405.989 83.128H385.253V91.128H405.989V83.128ZM385.253 83.128C380.518 83.128 374.024 83.7963 369.335 84.3032L370.195 92.2568C374.978 91.7397 381.028 91.128 385.253 91.128V83.128ZM372.656 91.0449C381.09 82.2269 389.263 73.414 395.318 64.7276C401.346 56.082 405.637 47.0648 405.637 37.848H397.637C397.637 44.6312 394.44 51.998 388.756 60.1524C383.099 68.266 375.336 76.6691 366.874 85.5151L372.656 91.0449ZM405.637 37.848C405.637 28.1307 402.28 19.8378 396.163 13.9824C390.064 8.14496 381.557 5.048 371.813 5.048V13.048C379.861 13.048 386.266 15.583 390.631 19.7616C394.978 23.9222 397.637 30.0293 397.637 37.848H405.637ZM371.813 5.048C364.798 5.048 358.801 6.41091 353.341 9.13193C347.92 11.8334 343.226 15.7758 338.678 20.6576L344.532 26.1104C348.688 21.6482 352.634 18.4226 356.909 16.2921C361.145 14.1811 365.9 13.048 371.813 13.048V5.048ZM338.794 26.2299L349.162 36.4699L354.784 30.7781L344.416 20.5381L338.794 26.2299ZM354.873 36.379C359.746 31.2493 364.195 27.768 369.381 27.768V19.768C360.487 19.768 353.928 25.7587 349.073 30.869L354.873 36.379ZM369.381 27.768C373.077 27.768 375.43 28.888 376.893 30.4689C378.399 32.0959 379.461 34.7517 379.461 38.744H387.461C387.461 33.3923 386.027 28.5601 382.765 25.0351C379.46 21.464 374.773 19.768 369.381 19.768V27.768ZM379.461 38.744C379.461 44.1642 376.222 50.675 369.157 59.2578C362.185 67.7265 352.134 77.4731 339.733 89.3604L345.269 95.1356C357.572 83.3428 368.001 73.2495 375.333 64.3422C382.572 55.549 387.461 47.1478 387.461 38.744H379.461ZM338.501 92.248V103H346.501V92.248H338.501ZM424.273 103H420.273V107H424.273V103ZM483.793 103V107H487.793V103H483.793ZM483.793 87.128H487.793V83.128H483.793V87.128ZM443.217 87.128H439.217V91.128H443.217V87.128ZM443.217 61.912V57.912H439.217V61.912H443.217ZM476.369 61.912V65.912H480.369V61.912H476.369ZM476.369 45.912H480.369V41.912H476.369V45.912ZM443.217 45.912H439.217V49.912H443.217V45.912ZM443.217 24.024V20.024H439.217V24.024H443.217ZM482.385 24.024V28.024H486.385V24.024H482.385ZM482.385 8.28H486.385V4.28H482.385V8.28ZM424.273 8.28V4.28H420.273V8.28H424.273ZM424.273 107H483.793V99H424.273V107ZM487.793 103V87.128H479.793V103H487.793ZM483.793 83.128H443.217V91.128H483.793V83.128ZM447.217 87.128V61.912H439.217V87.128H447.217ZM443.217 65.912H476.369V57.912H443.217V65.912ZM480.369 61.912V45.912H472.369V61.912H480.369ZM476.369 41.912H443.217V49.912H476.369V41.912ZM447.217 45.912V24.024H439.217V45.912H447.217ZM443.217 28.024H482.385V20.024H443.217V28.024ZM486.385 24.024V8.28H478.385V24.024H486.385ZM482.385 4.28H424.273V12.28H482.385V4.28ZM420.273 8.28V103H428.273V8.28H420.273ZM563.383 103H559.383V107H563.383V103ZM580.919 103V107H584.919V103H580.919ZM580.919 10.712H584.919V6.712H580.919V10.712ZM558.263 10.712V6.712H556.043L554.869 8.59546L558.263 10.712ZM523.063 67.16L519.669 65.0435L519.063 66.015V67.16H523.063ZM523.063 80.088H519.063V84.088H523.063V80.088ZM592.183 80.088V84.088H596.183V80.088H592.183ZM592.183 65.624H596.183V61.624H592.183V65.624ZM541.367 65.624L537.982 63.4922L534.12 69.624H541.367V65.624ZM555.959 42.456L559.344 44.5877L559.438 44.4375L559.519 44.2795L555.959 42.456ZM563.639 27.48V23.48H561.138L560.043 25.7281L563.639 27.48ZM564.151 27.48L568.147 27.6658L568.341 23.48H564.151V27.48ZM563.383 107H580.919V99H563.383V107ZM584.919 103V10.712H576.919V103H584.919ZM580.919 6.712H558.263V14.712H580.919V6.712ZM554.869 8.59546L519.669 65.0435L526.457 69.2765L561.657 12.8285L554.869 8.59546ZM519.063 67.16V80.088H527.063V67.16H519.063ZM523.063 84.088H592.183V76.088H523.063V84.088ZM596.183 80.088V65.624H588.183V80.088H596.183ZM592.183 61.624H541.367V69.624H592.183V61.624ZM544.752 67.7557L559.344 44.5877L552.574 40.3242L537.982 63.4922L544.752 67.7557ZM559.519 44.2795C562.151 39.1415 564.783 34.2639 567.235 29.2319L560.043 25.7281C557.631 30.6801 555.143 35.2745 552.399 40.6325L559.519 44.2795ZM563.639 31.48H564.151V23.48H563.639V31.48ZM560.155 27.2942C559.904 32.6938 559.383 41.6924 559.383 47.32H567.383C567.383 41.9396 567.886 33.2742 568.147 27.6658L560.155 27.2942ZM559.383 47.32V103H567.383V47.32H559.383ZM647.331 102.104L648.596 105.899L652.025 104.756L651.234 101.229L647.331 102.104ZM644.259 88.408L648.162 87.5326L647.156 83.0494L642.854 84.6627L644.259 88.408ZM627.363 46.168V42.168H623.363V46.168H627.363ZM645.155 46.168V50.168H649.155V46.168H645.155ZM645.155 31.448H649.155V27.448H645.155V31.448ZM627.363 31.448H623.363V35.448H627.363V31.448ZM627.363 11.992H631.363V7.992H627.363V11.992ZM611.747 11.992V7.992H608.146L607.769 11.5733L611.747 11.992ZM609.699 31.448L609.974 35.4385L613.325 35.2074L613.677 31.8667L609.699 31.448ZM598.563 32.216L598.288 28.2255L594.563 28.4824V32.216H598.563ZM598.563 46.168H594.563V50.168H598.563V46.168ZM608.547 46.168H612.547V42.168H608.547V46.168ZM632.099 108.792C639.114 108.792 644.572 107.24 648.596 105.899L646.066 98.3093C642.41 99.5278 637.884 100.792 632.099 100.792V108.792ZM651.234 101.229L648.162 87.5326L640.356 89.2834L643.428 102.979L651.234 101.229ZM642.854 84.6627C640.799 85.4337 638.722 86.072 637.091 86.072V94.072C640.324 94.072 643.623 92.9183 645.664 92.1533L642.854 84.6627ZM637.091 86.072C634.806 86.072 633.647 85.4094 632.952 84.5721C632.142 83.5971 631.363 81.6674 631.363 78.04H623.363C623.363 82.6046 624.312 86.6909 626.798 89.6839C629.399 92.8146 633.104 94.072 637.091 94.072V86.072ZM631.363 78.04V46.168H623.363V78.04H631.363ZM627.363 50.168H645.155V42.168H627.363V50.168ZM649.155 46.168V31.448H641.155V46.168H649.155ZM645.155 27.448H627.363V35.448H645.155V27.448ZM631.363 31.448V11.992H623.363V31.448H631.363ZM627.363 7.992H611.747V15.992H627.363V7.992ZM607.769 11.5733L605.721 31.0293L613.677 31.8667L615.725 12.4107L607.769 11.5733ZM609.424 27.4575L598.288 28.2255L598.838 36.2065L609.974 35.4385L609.424 27.4575ZM594.563 32.216V46.168H602.563V32.216H594.563ZM598.563 50.168H608.547V42.168H598.563V50.168ZM604.547 46.168V78.04H612.547V46.168H604.547ZM604.547 78.04C604.547 86.4828 606.253 94.2265 610.819 99.9187C615.517 105.776 622.692 108.792 632.099 108.792V100.792C624.482 100.792 619.881 98.4318 617.059 94.9133C614.105 91.2295 612.547 85.5972 612.547 78.04H604.547ZM659.862 103H655.862V107H659.862V103ZM678.678 103V107H682.678V103H678.678ZM678.678 53.72L675.885 50.8569L674.678 52.0341V53.72H678.678ZM703.638 103H699.638V107H703.638V103ZM722.454 103V107H726.454V103H722.454ZM677.782 40.152L673.791 39.8859L673.107 50.1443L680.544 43.0454L677.782 40.152ZM678.678 26.712L682.669 26.9781L682.678 26.8452V26.712H678.678ZM678.678 0.983994H682.678V-3.01601H678.678V0.983994ZM659.862 0.983994V-3.01601H655.862V0.983994H659.862ZM659.862 107H678.678V99H659.862V107ZM682.678 103V53.72H674.678V103H682.678ZM681.471 56.5831C686.638 51.542 689.341 49.784 693.526 49.784V41.784C685.935 41.784 681.214 45.658 675.885 50.8569L681.471 56.5831ZM693.526 49.784C696.241 49.784 697.274 50.4677 697.916 51.3687C698.821 52.6389 699.638 55.3035 699.638 60.76H707.638C707.638 54.9525 706.855 50.1291 704.432 46.7273C701.746 42.9563 697.723 41.784 693.526 41.784V49.784ZM699.638 60.76V103H707.638V60.76H699.638ZM703.638 107H722.454V99H703.638V107ZM726.454 103V58.328H718.454V103H726.454ZM726.454 58.328C726.454 48.9727 724.702 40.8136 720.367 34.9056C715.871 28.778 709.033 25.656 700.31 25.656V33.656C706.947 33.656 711.181 35.91 713.917 39.6384C716.814 43.5864 718.454 49.7633 718.454 58.328H726.454ZM700.31 25.656C689.038 25.656 680.914 31.6329 675.02 37.2586L680.544 43.0454C685.914 37.9191 692.126 33.656 700.31 33.656V25.656ZM681.773 40.4181L682.669 26.9781L674.687 26.4459L673.791 39.8859L681.773 40.4181ZM682.678 26.712V0.983994H674.678V26.712H682.678ZM678.678 -3.01601H659.862V4.98399H678.678V-3.01601ZM655.862 0.983994V103H663.862V0.983994H655.862Z" fill="#202020"/>
</svg>
